name rise35.5848peak51.9257fall54.8793.mot
datacolumns 19
datarows 32
range 6.249968 6.301639
endheader
time	ground_force1_vx	ground_force1_vy	ground_force1_vz	ground_force1_px	ground_force1_py	ground_force1_pz	ground_force2_vx	ground_force2_vy	ground_force2_vz	ground_force2_px	ground_force2_py	ground_force2_pz	ground_torque1_x	ground_torque1_y	ground_torque1_z	ground_torque2_x	ground_torque2_y	ground_torque2_z	
6.249968	0.000000	0.000000	0.000000	0.000000	0.000000	0.000000	-53.348911	819.979698	-44.732276	0.093221	0.000000	-0.091358	0.000000	0.000000	0.000000	0.000000	-15.817458	0.000000	
6.251643	0.000000	0.000000	0.000000	0.000000	0.000000	0.000000	-53.616238	817.966512	-44.525335	0.092557	0.000000	-0.091387	0.000000	0.000000	0.000000	0.000000	-15.764631	0.000000	
6.253307	0.000000	0.000000	0.000000	0.000000	0.000000	0.000000	-53.901456	815.857717	-44.310317	0.091890	0.000000	-0.091415	0.000000	0.000000	0.000000	0.000000	-15.716356	0.000000	
6.254968	-1.490577	3.621369	-1.983496	0.000000	0.000000	0.000000	-54.205085	813.651702	-44.086861	0.091220	0.000000	-0.091442	0.000000	-0.693240	0.000000	0.000000	-15.672719	0.000000	
6.256643	-2.344989	7.023362	-3.310119	0.000000	0.000000	0.000000	-54.527567	811.346742	-43.854579	0.090547	0.000000	-0.091468	0.000000	-1.157706	0.000000	0.000000	-15.633784	0.000000	
6.258313	-3.302971	11.141260	-4.840156	0.000000	0.000000	0.000000	-54.869269	808.941000	-43.613056	0.089873	0.000000	-0.091492	0.000000	-1.693721	0.000000	0.000000	-15.599598	0.000000	
6.259971	-4.332988	15.933799	-6.536230	0.000000	0.000000	0.000000	-55.230471	806.432535	-43.361851	0.089197	0.000000	-0.091515	0.000000	-2.288341	0.000000	0.000000	-15.570186	0.000000	
6.261634	-5.396302	21.328547	-8.349313	0.000000	0.000000	0.000000	-55.611369	803.819302	-43.100501	0.088521	0.000000	-0.091536	0.000000	-2.924562	0.000000	0.000000	-15.545552	0.000000	
6.263307	-6.449500	27.227455	-10.221999	0.264679	0.000000	0.051183	-56.012065	801.099160	-42.828520	0.087846	0.000000	-0.091556	0.000000	-5.957912	0.000000	0.000000	-15.525681	0.000000	
6.264971	-7.447641	33.515190	-12.092783	0.268674	0.000000	0.052579	-56.432566	798.269877	-42.545402	0.087173	0.000000	-0.091573	0.000000	-7.098141	0.000000	0.000000	-15.510535	0.000000	
6.266638	-8.347608	40.069149	-13.900807	0.272499	0.000000	0.053846	-56.872783	795.329139	-42.250623	0.086501	0.000000	-0.091587	0.000000	-8.216681	0.000000	0.000000	-15.500053	0.000000	
6.268303	-9.111230	46.769718	-15.590394	0.276176	0.000000	0.055003	-57.332521	792.274555	-41.943647	0.085834	0.000000	-0.091599	0.000000	-9.280231	0.000000	0.000000	-15.494152	0.000000	
6.269972	-9.707762	53.509413	-17.114813	0.279724	0.000000	0.056065	-57.811483	789.103666	-41.623922	0.085170	0.000000	-0.091608	0.000000	-10.260117	0.000000	0.000000	-15.492728	0.000000	
6.271635	-10.115495	60.199934	-18.438889	0.283154	0.000000	0.057045	-58.309262	785.813956	-41.290890	0.084511	0.000000	-0.091614	0.000000	-11.133990	0.000000	0.000000	-15.495652	0.000000	
6.273330	-10.322414	66.776628	-19.540307	0.286479	0.000000	0.057952	-58.825342	782.402861	-40.943986	0.083859	0.000000	-0.091616	0.000000	-11.886782	0.000000	0.000000	-15.502774	0.000000	
6.274975	-10.325971	73.200315	-20.409674	0.289706	0.000000	0.058795	-59.359095	778.867777	-40.582643	0.083214	0.000000	-0.091615	0.000000	-12.510932	0.000000	0.000000	-15.513919	0.000000	
6.276643	-10.132119	79.456708	-21.049504	0.292842	0.000000	0.059581	-59.909779	775.206073	-40.206296	0.082576	0.000000	-0.091610	0.000000	-13.005963	0.000000	0.000000	-15.528891	0.000000	
6.278306	-9.753812	85.553877	-21.472403	0.295893	0.000000	0.060318	-60.476536	771.415100	-39.814382	0.081947	0.000000	-0.091602	0.000000	-13.377550	0.000000	0.000000	-15.547470	0.000000	
6.279972	-9.209190	91.518299	-21.698732	0.298863	0.000000	0.061009	-61.058395	767.492206	-39.406352	0.081327	0.000000	-0.091589	0.000000	-13.636236	0.000000	0.000000	-15.569414	0.000000	
6.281634	-8.519643	97.390077	-21.754035	0.301755	0.000000	0.061660	-61.654266	763.434743	-38.981667	0.080718	0.000000	-0.091572	0.000000	-13.795968	0.000000	0.000000	-15.594456	0.000000	
6.283319	-7.707941	103.217860	-21.666481	0.304572	0.000000	0.062274	-62.262946	759.240084	-38.539807	0.080119	0.000000	-0.091550	0.000000	-13.872592	0.000000	0.000000	-15.622312	0.000000	
6.284968	-6.796576	109.053932	-21.464533	0.307314	0.000000	0.062856	-62.883115	754.905631	-38.080274	0.079533	0.000000	-0.091523	0.000000	-13.882447	0.000000	0.000000	-15.652671	0.000000	
6.286638	-5.806395	114.949830	-21.174990	0.309984	0.000000	0.063407	-63.513342	750.428832	-37.602594	0.078958	0.000000	-0.091492	0.000000	-13.841156	0.000000	0.000000	-15.685206	0.000000	
6.288314	-4.755599	120.952747	-20.821477	0.312582	0.000000	0.063930	-64.152081	745.807191	-37.106328	0.078397	0.000000	-0.091455	0.000000	-13.762661	0.000000	0.000000	-15.719567	0.000000	
6.289971	-3.659111	127.102861	-20.423447	0.315108	0.000000	0.064428	-64.797680	741.038282	-36.591070	0.077848	0.000000	-0.091414	0.000000	-13.658552	0.000000	0.000000	-15.755385	0.000000	
6.291637	-2.528301	133.431620	-19.995657	0.317563	0.000000	0.064903	-65.448380	736.119767	-36.056452	0.077314	0.000000	-0.091367	0.000000	-13.537690	0.000000	0.000000	-15.792274	0.000000	
6.293312	-1.371013	139.960955	-19.548084	0.319947	0.000000	0.065357	-66.102317	731.049407	-35.502151	0.076794	0.000000	-0.091314	0.000000	-13.406088	0.000000	0.000000	-15.829830	0.000000	
6.294969	-0.191866	146.703304	-19.086217	0.322259	0.000000	0.065791	-66.757533	725.825076	-34.927894	0.076289	0.000000	-0.091256	0.000000	-13.267033	0.000000	0.000000	-15.867632	0.000000	
6.296635	1.007282	153.662295	-18.611612	0.324499	0.000000	0.066207	-67.411972	720.444782	-34.333455	0.075798	0.000000	-0.091192	0.000000	-13.121387	0.000000	0.000000	-15.905247	0.000000	
6.298316	2.226740	160.833923	-18.122638	0.326667	0.000000	0.066606	-68.063492	714.906676	-33.718665	0.075323	0.000000	-0.091122	0.000000	-12.968010	0.000000	0.000000	-15.942226	0.000000	
6.299973	3.468344	168.208030	-17.615324	0.328760	0.000000	0.066990	-68.709866	709.209076	-33.083413	0.074862	0.000000	-0.091047	0.000000	-12.804264	0.000000	0.000000	-15.978108	0.000000	
6.301639	4.734823	175.769938	-17.084210	0.330780	0.000000	0.067358	-69.348791	703.350476	-32.427650	0.074417	0.000000	-0.090965	0.000000	-12.626530	0.000000	0.000000	-16.012424	0.000000	
